<svg width="27" height="32" xmlns="http://www.w3.org/2000/svg"><defs><filter x="-50%" y="-50%" width="200%" height="200%" filterUnits="objectBoundingBox" id="a"><feOffset dy="2" in="SourceAlpha" result="shadowOffsetOuter1"/><feGaussianBlur stdDeviation="2" in="shadowOffsetOuter1" result="shadowBlurOuter1"/><feColorMatrix values="0 0 0 0 0 0 0 0 0 0 0 0 0 0 0 0 0 0 0.05 0" in="shadowBlurOuter1" result="shadowMatrixOuter1"/><feMerge><feMergeNode in="shadowMatrixOuter1"/><feMergeNode in="SourceGraphic"/></feMerge></filter></defs><g filter="url(#a)" transform="translate(-10 -15)" fill="#000" fill-rule="evenodd"><path d="M31.658 23.862l-.894.692-1.44 1.115a3.758 3.758 0 0 0-1.53-2.344l2.771-2.147-.858-1.139a1.071 1.071 0 0 1 .197-1.488l2.09 2.772c.308.41.416.912.342 1.385-.07.442-.299.86-.678 1.154zM22.873 33.551c3.091-1.62 5.844-2.078 6.539-.966.57.914-.4 2.648-2.3 4.423l1.803 2.932h1.228A1.054 1.054 0 0 1 31.161 41h-3.708l-.652-1.06-1.045-1.7-.408-.663c.144-.24.228-.52.228-.82 0-.871-.697-1.577-1.556-1.577-.047 0-.094.005-.14.009l-1.007-1.638z"/><path d="M14.226 23.453c.162-.788.85-1.38 1.675-1.38.235 0 .46.048.664.136.614.262 1.046.879 1.046 1.598v8.224c0 .586.469 1.061 1.047 1.061a1.045 1.045 0 0 0 .989-.715l.972-2.442-1.887-6.454-.004-.013a5.335 5.335 0 0 1-.063-.217c-.687-2.529.55-5.169 2.862-6.251l4.443 1.566c.546.19.837.79.654 1.343l-1.125-.408a.852.852 0 0 0-1.094.524.87.87 0 0 0 .518 1.109l1.16.42c-.202.545-.8.823-1.339.622l-1.226-.457c-.087.5.19 1.006.678 1.183l2.349.867a2.916 2.916 0 0 1 1.742 2.556c.002.042.005.084.005.127l-.003.078.007-.02h3.667v-1.434c0-.4.488-.749.798-.93l.249-.131v3.513c-.014.989-.807 1.786-1.786 1.786H27.09c-.367 0-.723.045-1.064.127.017-.004.033-.01.05-.015l-.054.015-.032.009c-1.843.462-3.243 2.064-3.43 4.027l-.007.103a4.63 4.63 0 0 0 1.153 3.427c.13.189.208.418.208.666 0 .642-.513 1.163-1.147 1.163a1.13 1.13 0 0 1-.618-.184l-2.321-1.389c-.32.182-.537.528-.537.927 0 .263.094.504.251.69l.963 1.06H21.737A1.054 1.054 0 0 1 22.755 41h-3.357c0-1-.8-1.811-1.787-1.811v-3.09a1.805 1.805 0 0 0 1.431-1.907c-.105.016-.21.027-.32.027-.407 0-.786-.116-1.11-.315a2.19 2.19 0 0 1-1.047-1.873v-8.224a.689.689 0 0 0-.685-.694.688.688 0 0 0-.682.654c.47.327.779.874.779 1.495 0 1-.8 1.811-1.787 1.811v-3.266c0-.121.013-.24.036-.354z"/></g></svg>