<svg width="27" height="27" xmlns="http://www.w3.org/2000/svg"><defs><filter x="-50%" y="-50%" width="200%" height="200%" filterUnits="objectBoundingBox" id="a"><feOffset dy="2" in="SourceAlpha" result="shadowOffsetOuter1"/><feGaussianBlur stdDeviation="2" in="shadowOffsetOuter1" result="shadowBlurOuter1"/><feColorMatrix values="0 0 0 0 0 0 0 0 0 0 0 0 0 0 0 0 0 0 0.05 0" in="shadowBlurOuter1" result="shadowMatrixOuter1"/><feMerge><feMergeNode in="shadowMatrixOuter1"/><feMergeNode in="SourceGraphic"/></feMerge></filter></defs><path d="M20 2v2h-5l-3.47 5H14v2h-1.54l3.71 8h-2.2l-.93-2H4.38l-1.03 2H1.1l4.13-8H5c-.45 0-.83-.3-.96-.7L.87.84 1.82.5c.52-.16 1.09.13 1.26.65L5.72 9h4.38l3.47-5H10V2h10zM7.5 11l-2.08 4h6.69l-1.85-4H7.5z" transform="translate(3 2)" filter="url(#a)" fill="#000" fill-rule="evenodd"/></svg>